# Created by Kenney (www.kenney.nl)

mtllib upper_leg.mtl

g mergedBlocks

v 0.157 0.35 0.2425833
v 0.314 0.35 0.2251666
v 0.271932 0.35 0.195
v -0.157 0.35 0.2425833
v -0.271932 0.35 0.195
v -0.314 0.35 0.2251666
v -0.314 0.35 0.13
v -0.543864 0.35 0.13
v -0.314 0.35 -0.2251666
v -0.271932 0.35 0.065
v -0.157 0.35 0.0174167
v -0.543864 0.35 -0.13
v -0.628 0.35 1.87697E-15
v -9.067207E-15 0.35 -0.26
v 0.157 0.35 0.0174167
v 0.271932 0.35 0.065
v 0 0.35 -1.87697E-15
v 0.314 0.35 -0.2251666
v 0.314 0.35 0.13
v 0.543864 0.35 -0.13
v 0.543864 0.35 0.13
v 0.628 0.35 -9.384848E-15
v -0.543864 0.15 -0.13
v -0.543864 0.25 -0.13
v -0.628 0.15 -1.970818E-13
v -0.314 0.15 -0.2251666
v -0.314 0.25 -0.2251666
v -0.628 0.25 1.87697E-15
v 0.543864 0.15 -0.13
v 0.628 0.15 -1.970818E-13
v 0.543864 0.25 -0.13
v 0.628 0.25 -9.384848E-15
v -5.032301E-13 0.15 -0.26
v 0.157 0.15 -0.2425833
v -9.067207E-15 0.25 -0.26
v 0.314 0.15 -0.2251666
v 0.314 0.25 -0.2251666
v 0.543864 0.25 0.13
v 0.314 0.25 0.2251666
v 0.314 0.25 0.13
v 0.271932 0.25 0.065
v 0.157 0.25 0.0174167
v 0 0.25 -1.87697E-15
v -0.157 0.25 0.0174167
v -0.271932 0.25 0.065
v -0.314 0.25 0.13
v -0.157 0.25 0.2425833
v -0.314 0.25 0.2251666
v -0.271932 0.25 0.195
v -0.543864 0.25 0.13
v 0.157 0.25 0.2425833
v 0.271932 0.25 0.195
v 0.543864 0.15 0.13
v 0.314 0.15 0.2251666
v -5.032301E-13 0.15 0.26
v 1.360081E-14 0.25 0.26
v -0.314 0.15 0.2251666
v -0.543864 0.15 0.13
v -0.157 0.15 -0.2425833
v 0.543864 0.05 -0.13
v 0.543864 0 -0.13
v 0.628 0.05 -1.970818E-13
v 0.628 0 -1.970818E-13
v -0.314 0 -0.2251666
v -5.032301E-13 0 -0.26
v -0.314 0.05 -0.2251666
v -5.032301E-13 0.05 -0.26
v -0.157 0.05 -0.2425833
v -0.543864 0 -0.13
v 0.543864 0 0.13
v 0.314 0 0.2251666
v 0.314 0 -0.2251666
v -5.032301E-13 0 0.26
v -0.314 0 0.2251666
v -0.543864 0 0.13
v -0.628 0 -1.970818E-13
v 0.314 0.05 -0.2251666
v 0.314 0.05 -0.13
v 0.271932 0.05 -0.195
v 0.157 0.05 -0.2425833
v -0.271932 0.05 -0.195
v -0.314 0.05 -0.13
v -0.543864 0.05 -0.13
v -0.314 0.05 0.2251666
v -0.543864 0.05 0.13
v -0.628 0.05 -1.970818E-13
v 0.543864 0.05 0.13
v 0.314 0.05 0.2251666
v 0.271932 0.05 -0.065
v -5.032301E-13 0.05 0.26
v 0.157 0.05 -0.0174167
v -5.032301E-13 0.05 -1.970818E-13
v -0.157 0.05 -0.0174167
v -0.271932 0.05 -0.065
v 0.314 0.15 -0.13
v 0.271932 0.15 -0.065
v 0.157 0.15 -0.0174167
v -5.032301E-13 0.15 -1.970818E-13
v -0.157 0.15 -0.0174167
v -0.271932 0.15 -0.065
v -0.314 0.15 -0.13
v -0.271932 0.15 -0.195
v 0.271932 0.15 -0.195
v -0.628 0.75 2.008357E-13
v -0.628 0.8 2.008357E-13
v -0.543864 0.75 0.13
v -0.543864 0.8 0.13
v 4.941628E-13 0.75 -0.26
v 0.314 0.75 -0.2251666
v 4.941628E-13 0.8 -0.26
v 0.314 0.8 -0.2251666
v 0.543864 0.75 -0.13
v 0.543864 0.8 -0.13
v 0.628 0.8 1.895739E-13
v 0.628 0.75 1.895739E-13
v 0.543864 0.8 0.13
v 0.543864 0.75 0.13
v -0.314 0.75 0.2251666
v -0.314 0.8 0.2251666
v 5.168309E-13 0.8 0.26
v -0.314 0.75 -0.2251666
v -0.314 0.8 -0.2251666
v 0.314 0.8 0.2251666
v 0.314 0.75 0.2251666
v 0.314 0.75 0.13
v 0.271932 0.75 0.195
v 0.157 0.75 0.2425833
v -0.157 0.75 0.2425833
v -0.271932 0.75 0.195
v -0.314 0.75 0.13
v -0.543864 0.75 -0.13
v 0.271932 0.75 0.065
v 0.157 0.75 0.0174167
v 5.032301E-13 0.75 1.970818E-13
v -0.157 0.75 0.0174167
v -0.271932 0.75 0.065
v -0.543864 0.8 -0.13
v 5.168309E-13 0.75 0.26
v 0.628 0.65 1.895739E-13
v 0.543864 0.65 0.13
v 0.543864 0.65 -0.13
v 0.314 0.65 0.2251666
v 0.314 0.65 0.13
v 0.314 0.65 -0.2251666
v 0.271932 0.65 0.065
v 4.941628E-13 0.65 -0.26
v 0.157 0.65 0.0174167
v 5.032301E-13 0.65 1.970818E-13
v -0.157 0.65 0.0174167
v -0.314 0.65 -0.2251666
v -0.271932 0.65 0.065
v -0.314 0.65 0.13
v -0.157 0.65 0.2425833
v -0.314 0.65 0.2251666
v -0.271932 0.65 0.195
v -0.543864 0.65 0.13
v -0.543864 0.65 -0.13
v -0.628 0.65 2.008357E-13
v 0.157 0.65 0.2425833
v 0.271932 0.65 0.195
v -0.314 0.55 -0.2251666
v -0.543864 0.55 -0.13
v 0.314 0.55 -0.13
v 0.271932 0.55 -0.065
v 0.314 0.55 0.2251666
v 0 0.55 0.26
v 0.157 0.55 -0.0174167
v 0 0.55 1.87697E-15
v -0.314 0.55 0.2251666
v -0.157 0.55 -0.0174167
v -0.271932 0.55 -0.065
v -0.314 0.55 -0.13
v -0.543864 0.55 0.13
v -0.628 0.55 1.87697E-15
v -0.157 0.55 -0.2425833
v -0.271932 0.55 -0.195
v 0.628 0.55 1.87697E-15
v 0.543864 0.55 -0.13
v 0.543864 0.55 0.13
v 0.314 0.55 -0.2251666
v 0.271932 0.55 -0.195
v 0.157 0.55 -0.2425833
v 5.168309E-13 0.65 0.26
v 0 0.55 -0.26
v 0.314 0.45 -0.2251666
v 0.543864 0.45 -0.13
v 0.314 0.45 0.2251666
v 1.360081E-14 0.35 0.26
v 0 0.45 0.26
v 0 0.45 -0.26
v 0.157 0.45 -0.2425833
v 0.628 0.45 1.87697E-15
v -0.543864 0.45 -0.13
v -0.628 0.45 1.87697E-15
v 0.314 0.45 -0.13
v 0.271932 0.45 -0.195
v -0.157 0.45 -0.2425833
v -0.271932 0.45 -0.195
v -0.314 0.45 -0.2251666
v -0.314 0.45 -0.13
v -0.314 0.45 0.2251666
v -0.543864 0.45 0.13
v 0.543864 0.45 0.13
v 0.271932 0.45 -0.065
v 0.157 0.45 -0.0174167
v 0 0.45 1.87697E-15
v -0.157 0.45 -0.0174167
v -0.271932 0.45 -0.065

vn 0 -1 0
vn -0.5827467 0 -0.8126538
vn -1 0 0
vn -0.2324811 0 -0.9726009
vn 0.5827467 0 -0.8126538
vn 1 0 0
vn 0 0 -1
vn 0.110258 0 -0.993903
vn 0.2324811 0 -0.9726009
vn 0 1 0
vn 0.5827467 0 0.8126538
vn 0.2324811 0 0.9726009
vn 0 0 1
vn 0.110258 0 0.993903
vn -0.2324811 0 0.9726009
vn -0.5827467 0 0.8126538
vn -0.110258 0 -0.993903
vn -0.110258 0 0.993903

vt -0.157 -0.2425833
vt -0.314 -0.2251666
vt -0.271932 -0.195
vt 0.157 -0.2425833
vt 0.271932 -0.195
vt 0.314 -0.2251666
vt 0.314 -0.13
vt 0.543864 -0.13
vt 0.314 0.2251666
vt 0.271932 -0.065
vt 0.157 -0.0174167
vt 0.543864 0.13
vt 0.628 -1.87697E-15
vt 9.067207E-15 0.26
vt -0.157 -0.0174167
vt -0.271932 -0.065
vt 0 1.87697E-15
vt -0.314 0.2251666
vt -0.314 -0.13
vt -0.543864 0.13
vt -0.543864 -0.13
vt -0.628 9.384848E-15
vt -0.13 0.15
vt -0.13 0.25
vt -1.970818E-13 0.15
vt 0.314 0.15
vt 0.314 0.25
vt 0.543864 0.15
vt 1.87697E-15 0.25
vt 0.543864 0.25
vt 0.13 0.15
vt 1.970818E-13 0.15
vt 0.13 0.25
vt 9.384848E-15 0.25
vt 5.032301E-13 0.15
vt -0.157 0.15
vt 9.067207E-15 0.25
vt -0.314 0.15
vt -0.314 0.25
vt -0.628 -9.384848E-15
vt -0.314 0.13
vt -0.271932 0.065
vt 9.067207E-15 -0.26
vt -0.157 0.0174167
vt 0 -1.87697E-15
vt 0.157 0.0174167
vt 0.271932 0.065
vt 0.314 0.13
vt 0.157 0.2425833
vt 0.271932 0.195
vt 0.628 1.87697E-15
vt -0.157 0.2425833
vt -0.271932 0.195
vt -0.543864 0.15
vt -0.543864 0.25
vt -5.032301E-13 0.15
vt 1.360081E-14 0.25
vt 0.157 0.25
vt 0.157 0.15
vt -0.157 0.25
vt 0.13 0.05
vt 0.13 0
vt 1.970818E-13 0.05
vt 1.970818E-13 0
vt 0.314 0
vt 5.032301E-13 0
vt 0.314 0.05
vt 5.032301E-13 0.05
vt -0.157 0.05
vt -0.314 0.05
vt -5.032301E-13 0.05
vt 0.543864 0
vt -0.628 1.970818E-13
vt 5.032301E-13 -0.26
vt 5.032301E-13 0.26
vt 0.628 1.970818E-13
vt -0.314 0
vt -0.543864 0.05
vt -0.543864 0
vt 0.628 -1.970818E-13
vt -0.628 -1.970818E-13
vt 5.032301E-13 -1.970818E-13
vt 0.543864 0.05
vt -5.032301E-13 0
vt -0.13 0
vt -0.13 0.05
vt -1.970818E-13 0
vt -1.970818E-13 0.05
vt 5.032301E-13 1.970818E-13
vt 0.157 0.05
vt 2.008357E-13 0.75
vt 2.008357E-13 0.8
vt 0.13 0.75
vt 0.13 0.8
vt -4.941628E-13 0.75
vt -0.314 0.75
vt -4.941628E-13 0.8
vt -0.314 0.8
vt -0.543864 0.75
vt -0.543864 0.8
vt -1.895739E-13 0.8
vt -1.895739E-13 0.75
vt -0.13 0.8
vt -0.13 0.75
vt 5.168309E-13 0.8
vt 0.314 0.75
vt 0.314 0.8
vt 0.543864 0.8
vt 0.543864 0.75
vt 0.628 -2.008357E-13
vt -0.628 -1.895739E-13
vt -4.941628E-13 0.26
vt -5.032301E-13 -1.970818E-13
vt 5.168309E-13 0.75
vt -0.157 0.75
vt -0.628 1.895739E-13
vt -5.168309E-13 0.26
vt -4.941628E-13 -0.26
vt 0.628 2.008357E-13
vt -5.032301E-13 1.970818E-13
vt 0.157 0.75
vt 0.314 0.55
vt 0.314 0.65
vt 0.543864 0.55
vt 0.543864 0.65
vt 0 -0.26
vt -0.628 -1.87697E-15
vt -0.13 0.55
vt -0.13 0.65
vt 1.87697E-15 0.55
vt 2.008357E-13 0.65
vt 0 0.55
vt -0.314 0.55
vt 5.168309E-13 0.65
vt -0.314 0.65
vt -0.157 0.65
vt -1.87697E-15 0.55
vt -1.895739E-13 0.65
vt 0.157 0.55
vt -4.941628E-13 0.65
vt -0.543864 0.55
vt -0.543864 0.65
vt 0.13 0.55
vt 0.13 0.65
vt -0.314 0.35
vt -0.543864 0.35
vt -0.314 0.45
vt -0.543864 0.45
vt 0.314 0.35
vt 0.157 0.35
vt 0.314 0.45
vt 1.360081E-14 0.35
vt 0 0.45
vt 9.067207E-15 0.35
vt 0.157 0.45
vt -0.157 0.55
vt 0.13 0.35
vt 9.384848E-15 0.35
vt 0.13 0.45
vt -1.87697E-15 0.45
vt -0.13 0.35
vt -0.13 0.45
vt 1.87697E-15 0.35
vt 1.87697E-15 0.45
vt -0.628 1.87697E-15
vt 0 0.26
vt 0.543864 0.35
vt -0.157 0.45
vt 0.543864 0.45
vt 0.157 0.65
vt -0.157 0.35
vt -0.065 0.35
vt -0.065 0.25
vt -0.271932 0.25
vt -0.271932 0.35
vt 0.271932 0.25
vt 0.271932 0.35
vt 0 0.35
vt 0 0.25
vt 0.195 0.25
vt 0.195 0.35
vt -0.195 0.35
vt -0.195 0.25
vt 0.065 0.25
vt 0.065 0.35
vt 0.271932 0.05
vt 0.271932 0.15
vt 0.195 0.15
vt 0.195 0.05
vt 0.065 0.15
vt 0.065 0.05
vt -0.271932 0.05
vt -0.271932 0.15
vt -0.195 0.05
vt -0.195 0.15
vt -0.065 0.05
vt -0.065 0.15
vt -0.271932 0.65
vt -0.271932 0.75
vt 0.195 0.65
vt 0.195 0.75
vt 0.271932 0.75
vt 0.271932 0.65
vt -5.032301E-13 0.65
vt -5.032301E-13 0.75
vt -0.065 0.75
vt -0.065 0.65
vt 0.065 0.65
vt 0.065 0.75
vt -0.195 0.75
vt -0.195 0.65
vt -0.271932 0.45
vt -0.271932 0.55
vt -0.195 0.45
vt -0.195 0.55
vt 0.195 0.55
vt 0.195 0.45
vt 0.271932 0.45
vt 0.271932 0.55
vt 0.065 0.55
vt 0.065 0.45
vt -0.065 0.45
vt -0.065 0.55

usemtl skinDark(Clone)

f 3/3/1 2/2/1 1/1/1
f 6/6/1 5/5/1 4/4/1
f 5/5/1 6/6/1 7/7/1
f 7/7/1 6/6/1 8/8/1
f 7/7/1 8/8/1 9/9/1
f 9/9/1 10/10/1 7/7/1
f 9/9/1 11/11/1 10/10/1
f 9/9/1 8/8/1 12/12/1
f 12/12/1 8/8/1 13/13/1
f 14/14/1 11/11/1 9/9/1
f 14/14/1 16/16/1 15/15/1
f 14/14/1 15/15/1 17/17/1
f 14/14/1 17/17/1 11/11/1
f 18/18/1 16/16/1 14/14/1
f 18/18/1 19/19/1 16/16/1
f 20/20/1 19/19/1 18/18/1
f 20/20/1 21/21/1 2/2/1
f 2/2/1 3/3/1 19/19/1
f 20/20/1 2/2/1 19/19/1
f 21/21/1 20/20/1 22/22/1
f 25/25/3 24/24/2 23/23/2
f 23/28/2 27/27/4 26/26/4
f 24/24/2 25/25/3 28/29/3
f 27/27/4 23/28/2 24/30/2
f 31/33/5 30/32/6 29/31/5
f 30/32/6 31/33/5 32/34/6
f 35/37/7 34/36/8 33/35/7
f 34/36/8 35/37/7 36/38/9
f 36/38/9 35/37/7 37/39/9
f 31/21/10 38/20/10 32/40/10
f 38/20/10 31/21/10 39/18/10
f 39/18/10 31/21/10 40/41/10
f 40/41/10 31/21/10 37/2/10
f 40/41/10 37/2/10 41/42/10
f 41/42/10 37/2/10 35/43/10
f 41/42/10 35/43/10 42/44/10
f 42/44/10 35/43/10 43/45/10
f 43/45/10 35/43/10 44/46/10
f 44/46/10 35/43/10 27/6/10
f 44/46/10 27/6/10 45/47/10
f 45/47/10 27/6/10 46/48/10
f 49/50/10 48/9/10 47/49/10
f 48/9/10 49/50/10 46/48/10
f 48/9/10 46/48/10 50/12/10
f 50/12/10 46/48/10 27/6/10
f 50/12/10 27/6/10 24/8/10
f 50/12/10 24/8/10 28/51/10
f 39/18/10 52/53/10 51/52/10
f 52/53/10 39/18/10 40/41/10
f 38/30/11 54/26/12 53/28/11
f 54/26/12 38/30/11 39/27/12
f 37/39/9 29/54/5 36/38/9
f 29/54/5 37/39/9 31/55/5
f 39/27/12 55/56/13 54/26/12
f 55/56/13 39/27/12 56/57/13
f 56/57/13 39/27/12 51/58/14
f 48/39/15 58/54/16 57/38/15
f 58/54/16 48/39/15 50/55/16
f 27/27/4 59/59/17 26/26/4
f 59/59/17 27/27/4 33/35/7
f 33/35/7 27/27/4 35/37/7
f 56/57/13 57/38/15 55/56/13
f 57/38/15 56/57/13 48/39/15
f 48/39/15 56/57/13 47/60/18
f 58/31/16 28/29/3 25/25/3
f 28/29/3 58/31/16 50/33/16
f 32/34/6 53/23/11 30/32/6
f 53/23/11 32/34/6 38/24/11
f 62/63/6 61/62/5 60/61/5
f 61/62/5 62/63/6 63/64/6
f 66/67/4 65/66/7 64/65/4
f 65/66/7 66/67/4 67/68/7
f 67/71/7 66/70/4 68/69/17
f 69/72/2 66/67/4 64/65/4
f 70/21/1 61/20/1 63/73/1
f 61/20/1 70/21/1 71/2/1
f 61/20/1 71/2/1 72/18/1
f 72/18/1 71/2/1 73/74/1
f 72/18/1 73/74/1 65/75/1
f 65/75/1 73/74/1 74/6/1
f 65/75/1 74/6/1 64/9/1
f 64/9/1 74/6/1 75/8/1
f 64/9/1 75/8/1 69/12/1
f 69/12/1 75/8/1 76/76/1
f 60/78/5 72/77/9 77/70/9
f 72/77/9 60/78/5 61/79/5
f 77/2/10 79/3/10 78/19/10
f 79/3/10 77/2/10 80/1/10
f 66/6/10 81/5/10 68/4/10
f 81/5/10 66/6/10 82/7/10
f 82/7/10 66/6/10 83/8/10
f 82/7/10 83/8/10 84/9/10
f 84/9/10 83/8/10 85/12/10
f 85/12/10 83/8/10 86/80/10
f 60/21/10 87/20/10 62/81/10
f 87/20/10 60/21/10 77/2/10
f 87/20/10 77/2/10 88/18/10
f 88/67/10 77/67/10 78/67/10
f 88/18/10 78/19/10 89/16/10
f 88/18/10 89/16/10 90/75/10
f 90/75/10 89/16/10 91/15/10
f 90/75/10 91/15/10 92/82/10
f 90/75/10 92/82/10 93/11/10
f 90/75/10 93/11/10 84/9/10
f 84/9/10 93/11/10 94/10/10
f 84/9/10 94/10/10 82/7/10
f 66/67/4 69/72/2 83/83/2
f 74/77/15 85/78/16 75/79/16
f 85/78/16 74/77/15 84/70/15
f 88/67/12 73/84/13 71/65/12
f 73/84/13 88/67/12 90/71/13
f 88/67/12 70/72/11 87/83/11
f 70/72/11 88/67/12 71/65/12
f 76/87/3 83/86/2 69/85/2
f 83/86/2 76/87/3 86/88/3
f 54/2/1 96/42/1 95/41/1
f 96/42/1 54/2/1 55/74/1
f 96/42/1 55/74/1 97/44/1
f 97/44/1 55/74/1 98/89/1
f 98/89/1 55/74/1 57/6/1
f 98/89/1 57/6/1 99/46/1
f 99/46/1 57/6/1 100/47/1
f 100/47/1 57/6/1 101/48/1
f 101/48/1 57/6/1 58/8/1
f 101/48/1 58/8/1 26/9/1
f 26/9/1 58/8/1 23/12/1
f 23/12/1 58/8/1 25/76/1
f 102/50/1 26/9/1 59/49/1
f 26/9/1 102/50/1 101/48/1
f 53/21/1 29/20/1 30/73/1
f 29/20/1 53/21/1 54/2/1
f 29/20/1 54/2/1 36/18/1
f 36/26/1 54/26/1 95/26/1
f 36/18/1 95/41/1 103/53/1
f 36/18/1 103/53/1 34/52/1
f 75/62/16 86/88/3 76/87/3
f 86/88/3 75/62/16 85/61/16
f 87/86/11 63/64/6 62/63/6
f 63/64/6 87/86/11 70/85/11
f 90/71/13 74/77/15 73/84/13
f 74/77/15 90/71/13 84/70/15
f 67/68/7 72/77/9 65/66/7
f 72/77/9 67/68/7 77/70/9
f 77/67/9 67/71/7 80/90/8
f 106/93/16 105/92/3 104/91/3
f 105/92/3 106/93/16 107/94/16
f 110/97/7 109/96/9 108/95/7
f 109/96/9 110/97/7 111/98/9
f 111/98/9 112/99/5 109/96/9
f 112/99/5 111/98/9 113/100/5
f 116/103/11 115/102/6 114/101/6
f 115/102/6 116/103/11 117/104/11
f 119/98/15 106/99/16 118/96/15
f 106/99/16 119/98/15 107/100/16
f 118/96/15 120/105/13 119/98/15
f 122/107/4 108/95/7 121/106/4
f 108/95/7 122/107/4 110/97/7
f 123/107/12 117/109/11 116/108/11
f 117/109/11 123/107/12 124/106/12
f 124/2/1 126/3/1 125/19/1
f 126/3/1 124/2/1 127/1/1
f 118/6/1 129/5/1 128/4/1
f 129/5/1 118/6/1 130/7/1
f 130/7/1 118/6/1 106/8/1
f 130/7/1 106/8/1 121/9/1
f 121/9/1 106/8/1 131/12/1
f 131/12/1 106/8/1 104/110/1
f 117/21/1 112/20/1 115/111/1
f 112/20/1 117/21/1 124/2/1
f 112/20/1 124/2/1 125/19/1
f 112/20/1 125/19/1 109/18/1
f 109/18/1 125/19/1 132/16/1
f 109/18/1 132/16/1 108/112/1
f 108/112/1 132/16/1 133/15/1
f 108/112/1 133/15/1 134/113/1
f 108/112/1 134/113/1 135/11/1
f 108/112/1 135/11/1 121/9/1
f 121/9/1 135/11/1 136/10/1
f 121/9/1 136/10/1 130/7/1
f 104/91/3 137/103/2 131/104/2
f 137/103/2 104/91/3 105/92/3
f 120/105/13 128/115/18 138/114/13
f 128/115/18 120/105/13 118/96/15
f 131/109/2 122/107/4 121/106/4
f 122/107/4 131/109/2 137/108/2
f 113/21/10 116/20/10 114/116/10
f 116/20/10 113/21/10 123/18/10
f 123/18/10 113/21/10 111/2/10
f 123/18/10 111/2/10 120/117/10
f 120/117/10 111/2/10 110/118/10
f 120/117/10 110/118/10 119/9/10
f 119/9/10 110/118/10 122/6/10
f 119/9/10 122/6/10 107/12/10
f 107/12/10 122/6/10 137/8/10
f 107/12/10 137/8/10 105/119/10
f 114/101/6 112/93/5 113/94/5
f 112/93/5 114/101/6 115/102/6
f 141/21/10 140/20/10 139/116/10
f 140/20/10 141/21/10 142/18/10
f 142/18/10 141/21/10 143/41/10
f 143/41/10 141/21/10 144/2/10
f 143/41/10 144/2/10 145/42/10
f 145/42/10 144/2/10 146/118/10
f 145/42/10 146/118/10 147/44/10
f 147/44/10 146/118/10 148/120/10
f 148/120/10 146/118/10 149/46/10
f 149/46/10 146/118/10 150/6/10
f 149/46/10 150/6/10 151/47/10
f 151/47/10 150/6/10 152/48/10
f 155/50/10 154/9/10 153/49/10
f 154/9/10 155/50/10 152/48/10
f 154/9/10 152/48/10 156/12/10
f 156/12/10 152/48/10 150/6/10
f 156/12/10 150/6/10 157/8/10
f 156/12/10 157/8/10 158/119/10
f 142/18/10 160/53/10 159/52/10
f 160/53/10 142/18/10 143/41/10
f 123/107/12 127/121/14 124/106/12
f 127/121/14 123/107/12 138/114/13
f 138/114/13 123/107/12 120/105/13
f 162/124/2 150/123/4 161/122/4
f 150/123/4 162/124/2 157/125/2
f 165/2/1 164/42/1 163/41/1
f 164/42/1 165/2/1 166/126/1
f 164/42/1 166/126/1 167/44/1
f 167/44/1 166/126/1 168/45/1
f 168/45/1 166/126/1 169/6/1
f 168/45/1 169/6/1 170/46/1
f 170/46/1 169/6/1 171/47/1
f 171/47/1 169/6/1 172/48/1
f 172/48/1 169/6/1 173/8/1
f 172/48/1 173/8/1 161/9/1
f 161/9/1 173/8/1 162/12/1
f 162/12/1 173/8/1 174/13/1
f 176/50/1 161/9/1 175/49/1
f 161/9/1 176/50/1 172/48/1
f 179/21/1 178/20/1 177/127/1
f 178/20/1 179/21/1 165/2/1
f 178/20/1 165/2/1 180/18/1
f 180/122/1 165/122/1 163/122/1
f 180/18/1 163/41/1 181/53/1
f 180/18/1 181/53/1 182/52/1
f 174/130/3 157/129/2 162/128/2
f 157/129/2 174/130/3 158/131/3
f 183/134/13 169/133/15 166/132/13
f 169/133/15 183/134/13 154/135/15
f 154/135/15 183/134/13 153/136/18
f 139/138/6 179/128/11 177/137/6
f 179/128/11 139/138/6 140/129/11
f 150/123/4 175/139/17 161/122/4
f 175/139/17 150/123/4 184/132/7
f 184/132/7 150/123/4 146/140/7
f 154/135/15 173/141/16 169/133/15
f 173/141/16 154/135/15 156/142/16
f 141/144/5 177/137/6 178/143/5
f 177/137/6 141/144/5 139/138/6
f 173/143/16 158/131/3 174/130/3
f 158/131/3 173/143/16 156/144/16
f 185/147/9 20/146/5 18/145/9
f 20/146/5 185/147/9 186/148/5
f 187/151/12 1/150/14 2/149/12
f 1/150/14 187/151/12 188/152/13
f 188/152/13 187/151/12 189/153/13
f 190/153/7 18/145/9 14/154/7
f 18/145/9 190/153/7 185/147/9
f 185/151/9 190/153/7 191/155/8
f 140/125/11 165/122/12 179/124/11
f 165/122/12 140/125/11 142/123/12
f 146/140/7 182/156/8 184/132/7
f 182/156/8 146/140/7 180/133/9
f 180/133/9 146/140/7 144/135/9
f 186/159/5 22/158/6 20/157/5
f 22/158/6 186/159/5 192/160/6
f 13/163/3 193/162/2 12/161/2
f 193/162/2 13/163/3 194/164/3
f 185/2/10 196/3/10 195/19/10
f 196/3/10 185/2/10 191/1/10
f 199/6/10 198/5/10 197/4/10
f 198/5/10 199/6/10 200/7/10
f 200/7/10 199/6/10 193/8/10
f 200/7/10 193/8/10 201/9/10
f 201/9/10 193/8/10 202/12/10
f 202/12/10 193/8/10 194/51/10
f 186/21/10 203/20/10 192/165/10
f 203/20/10 186/21/10 185/2/10
f 203/20/10 185/2/10 187/18/10
f 187/151/10 185/151/10 195/151/10
f 187/18/10 195/19/10 204/16/10
f 187/18/10 204/16/10 189/166/10
f 189/166/10 204/16/10 205/15/10
f 189/166/10 205/15/10 206/17/10
f 189/166/10 206/17/10 207/11/10
f 189/166/10 207/11/10 201/9/10
f 201/9/10 207/11/10 208/10/10
f 201/9/10 208/10/10 200/7/10
f 12/167/2 199/151/4 9/149/4
f 190/153/7 199/147/4 197/168/17
f 199/151/4 12/167/2 193/169/2
f 142/123/12 166/132/13 165/122/12
f 166/132/13 142/123/12 183/134/13
f 183/134/13 142/123/12 159/170/14
f 201/147/15 8/146/16 6/145/15
f 8/146/16 201/147/15 202/148/16
f 203/169/11 2/149/12 21/167/11
f 2/149/12 203/169/11 187/151/12
f 192/160/6 21/161/11 22/158/6
f 21/161/11 192/160/6 203/162/11
f 199/151/4 14/154/7 9/149/4
f 14/154/7 199/151/4 190/153/7
f 8/157/16 194/164/3 13/163/3
f 194/164/3 8/157/16 202/159/16
f 189/153/13 4/171/18 188/152/13
f 4/171/18 189/153/13 6/145/15
f 6/145/15 189/153/13 201/147/15
f 144/135/9 178/141/5 180/133/9
f 178/141/5 144/135/9 141/142/5

usemtl custom2(Clone)

f 19/161/6 41/173/5 16/172/5
f 41/173/5 19/161/6 40/24/6
f 15/171/9 41/174/5 42/60/9
f 41/174/5 15/171/9 16/175/5
f 45/176/2 11/150/4 44/58/4
f 11/150/4 45/176/2 10/177/2
f 42/60/9 17/178/7 15/171/9
f 17/178/7 42/60/9 43/179/7
f 43/179/7 11/150/4 17/178/7
f 11/150/4 43/179/7 44/58/4
f 49/180/16 7/157/3 46/33/3
f 7/157/3 49/180/16 5/181/16
f 188/152/13 47/60/15 56/57/13
f 47/60/15 188/152/13 4/171/15
f 1/150/12 56/57/13 51/58/12
f 56/57/13 1/150/12 188/152/13
f 4/171/15 49/174/16 47/60/15
f 49/174/16 4/171/15 5/175/16
f 3/182/11 40/24/6 19/161/6
f 40/24/6 3/182/11 52/183/11
f 46/33/3 10/185/2 45/184/2
f 10/185/2 46/33/3 7/157/3
f 1/150/12 52/176/11 3/177/11
f 52/176/11 1/150/12 51/58/12
f 97/59/12 92/71/13 91/90/12
f 92/71/13 97/59/12 98/56/13
f 98/56/13 93/69/15 92/71/13
f 93/69/15 98/56/13 99/36/15
f 33/35/7 80/69/9 67/68/7
f 80/69/9 33/35/7 34/36/9
f 96/187/11 91/90/12 89/186/11
f 91/90/12 96/187/11 97/59/12
f 95/31/6 79/189/5 103/188/5
f 79/189/5 95/31/6 78/61/6
f 102/187/2 68/90/4 81/186/2
f 68/90/4 102/187/2 59/59/4
f 96/190/11 78/61/6 95/31/6
f 78/61/6 96/190/11 89/191/11
f 34/36/9 79/192/5 80/69/9
f 79/192/5 34/36/9 103/193/5
f 59/59/4 67/68/7 68/90/4
f 67/68/7 59/59/4 33/35/7
f 82/86/3 102/195/2 81/194/2
f 102/195/2 82/86/3 101/23/3
f 99/36/15 94/192/16 93/69/15
f 94/192/16 99/36/15 100/193/16
f 94/196/16 101/23/3 82/86/3
f 101/23/3 94/196/16 100/197/16
f 128/115/15 155/198/16 153/136/15
f 155/198/16 128/115/15 129/199/16
f 155/200/16 130/93/3 152/144/3
f 130/93/3 155/200/16 129/201/16
f 127/121/12 160/203/11 126/202/11
f 160/203/11 127/121/12 159/170/12
f 127/121/12 183/134/13 159/170/12
f 183/134/13 127/121/12 138/114/13
f 135/121/4 148/204/7 149/170/4
f 148/204/7 135/121/4 134/205/7
f 134/205/7 147/136/9 148/204/7
f 147/136/9 134/205/7 133/115/9
f 138/114/13 153/136/15 183/134/13
f 153/136/15 138/114/13 128/115/15
f 125/104/6 145/207/5 132/206/5
f 145/207/5 125/104/6 143/129/6
f 152/144/3 136/209/2 151/208/2
f 136/209/2 152/144/3 130/93/3
f 126/210/11 143/129/6 125/104/6
f 143/129/6 126/210/11 160/211/11
f 133/115/9 145/198/5 147/136/9
f 145/198/5 133/115/9 132/199/5
f 151/203/2 135/121/4 149/170/4
f 135/121/4 151/203/2 136/202/2
f 167/139/12 206/153/13 205/155/12
f 206/153/13 167/139/12 168/132/13
f 168/132/13 207/168/15 206/153/13
f 207/168/15 168/132/13 170/156/15
f 170/156/15 208/212/16 207/168/15
f 208/212/16 170/156/15 171/213/16
f 182/156/9 196/212/5 191/168/9
f 196/212/5 182/156/9 181/213/5
f 184/132/7 191/168/9 190/153/7
f 191/168/9 184/132/7 182/156/9
f 200/162/3 176/215/2 198/214/2
f 176/215/2 200/162/3 172/128/3
f 163/143/6 196/217/5 181/216/5
f 196/217/5 163/143/6 195/159/6
f 164/219/11 205/155/12 204/218/11
f 205/155/12 164/219/11 167/139/12
f 175/139/4 190/153/7 197/155/4
f 190/153/7 175/139/4 184/132/7
f 176/219/2 197/155/4 198/218/2
f 197/155/4 176/219/2 175/139/4
f 164/220/11 195/159/6 163/143/6
f 195/159/6 164/220/11 204/221/11
f 208/222/16 172/128/3 200/162/3
f 172/128/3 208/222/16 171/223/16

